<svg width="512" height="512" style="background-color: white;" xmlns="http://www.w3.org/2000/svg" xmlns:xlink="http://www.w3.org/1999/xlink">
<circle cx="116.52745272423863" cy="283.08689427885906" r="3" />
<circle cx="163.40548636499148" cy="337.7741118357636" r="3" />
<circle cx="453.8397549973488" cy="220.02404221288347" r="3" />
<circle cx="362.2815918917478" cy="357.2941747151509" r="3" />
<circle cx="351.6495374522102" cy="196.6844232309722" r="3" />
<circle cx="170.082134782553" cy="186.19586721300735" r="3" />
<circle cx="144.98039540408138" cy="268.6271068154048" r="3" />
<circle cx="93.21642780201293" cy="247.16706077974962" r="3" />
<circle cx="233.71692679294165" cy="337.8300413006954" r="3" />
<circle cx="130.48232991580937" cy="244.338200898832" r="3" />
<circle cx="368.6756502633361" cy="358.79191241270786" r="3" />
<circle cx="343.8722860296035" cy="242.74785351166634" r="3" />
<circle cx="369.73926150074374" cy="368.2807562597252" r="3" />
<circle cx="160.76090565818055" cy="231.0754186360745" r="3" />
<circle cx="477.86167446968386" cy="278.2706739769492" r="3" />
<circle cx="403.076882479132" cy="299.9276623401288" r="3" />
<circle cx="105.95463008356236" cy="208.99443912799518" r="3" />
<circle cx="276.15247112486037" cy="298.25002241581836" r="3" />
<circle cx="380.3812792961067" cy="362.9577915194193" r="3" />
<circle cx="310.9303626765905" cy="189.92981191936008" r="3" />
<circle cx="43.812397230606734" cy="232.82877205574079" r="3" />
<circle cx="121.56062059924889" cy="303.0202374194308" r="3" />
<circle cx="113.74528174827938" cy="203.1296197691167" r="3" />
<circle cx="391.5159794491661" cy="361.0340494376175" r="3" />
<circle cx="371.8091624399578" cy="314.66257743349297" r="3" />
<circle cx="140.9056119721182" cy="246.16800944341907" r="3" />
<circle cx="150.45144032396848" cy="211.9393373344014" r="3" />
<circle cx="179.01034961592796" cy="367.4599068256653" r="3" />
<circle cx="136.4763019281571" cy="257.87285933769823" r="3" />
<circle cx="286.35456315632655" cy="323.3222918391108" r="3" />
<circle cx="134.89146042896562" cy="259.03458037229467" r="3" />
<circle cx="129.2273092569311" cy="334.49393350631647" r="3" />
<circle cx="392.6359251835604" cy="154.1608499203544" r="3" />
<circle cx="359.69892687464" cy="309.04866205012223" r="3" />
<circle cx="203.09689337065012" cy="183.24275533012298" r="3" />
<circle cx="139.9908435085803" cy="147.2249266986175" r="3" />
<circle cx="115.96812138705641" cy="299.1966544957284" r="3" />
<circle cx="404.3117056495414" cy="167.31587292204614" r="3" />
<circle cx="363.2566922965041" cy="323.4640060360286" r="3" />
<circle cx="154.91075305784926" cy="352.5006920401106" r="3" />
<circle cx="157.51845347994015" cy="186.41909474718886" r="3" />
<circle cx="321.50883902104016" cy="361.7357621236365" r="3" />
<circle cx="138.5992429311721" cy="347.0751067381342" r="3" />
<circle cx="118.89969233401408" cy="229.5530791964306" r="3" />
<circle cx="304.94904389367025" cy="338.7639510296583" r="3" />
<circle cx="254.9389396814817" cy="128.9908213945946" r="3" />
<circle cx="124.86200962143047" cy="284.666546293806" r="3" />
<circle cx="56.12742281076805" cy="272.10038396293766" r="3" />
<circle cx="137.95670726803723" cy="256.4646627149" r="3" />
<circle cx="133.62912037496073" cy="271.1535788017577" r="3" />
<circle cx="121.35110455667117" cy="153.91588180818204" r="3" />
<circle cx="105.20524746202605" cy="153.36938568735917" r="3" />
<circle cx="393.6280354295718" cy="149.84396243688622" r="3" />
<circle cx="391.74369817455647" cy="157.6946275889887" r="3" />
<circle cx="387.3098697519854" cy="364.2502467173188" r="3" />
</svg>