<svg width="512" height="512" style="background-color: white;" xmlns="http://www.w3.org/2000/svg" xmlns:xlink="http://www.w3.org/1999/xlink">
<circle cx="144.05248" cy="-23.77480059259259" r="1" />
<circle cx="136.51623111111113" cy="-74.94492444444444" r="1" />
<circle cx="-207.76563555555558" cy="27.280395851851857" r="1" />
<circle cx="-199.25514074074076" cy="-86.51913007407407" r="1" />
<circle cx="-114.86599703703702" cy="55.159208296296306" r="1" />
<circle cx="112.60071111111111" cy="65.4190957037037" r="1" />
<circle cx="111.83568592592594" cy="-11.664554666666668" r="1" />
<circle cx="163.30691555555558" cy="7.430449777777781" r="1" />
<circle cx="34.74289185185186" cy="-81.4034157037037" r="1" />
<circle cx="126.28330666666669" cy="10.534494814814815" r="1" />
<circle cx="-211.9739614814815" cy="-85.86390044444445" r="1" />
<circle cx="-88.61003851851858" cy="12.612965925925923" r="1" />
<circle cx="-246.54288" cy="-89.74093274074075" r="1" />
<circle cx="98.10515555555556" cy="23.479777185185185" r="1" />
<circle cx="-225.70919111111112" cy="-15.873898666666662" r="1" />
<circle cx="-160.21061333333333" cy="-37.59219437037038" r="1" />
<circle cx="165.44518518518515" cy="39.859455999999994" r="1" />
<circle cx="-22.16837925925919" cy="-42.129505185185195" r="1" />
<circle cx="-239.03258074074074" cy="-84.89069511111111" r="1" />
<circle cx="-70.60198518518517" cy="64.3987034074074" r="1" />
<circle cx="216.30983111111112" cy="17.020029629629637" r="1" />
<circle cx="148.84472888888888" cy="-41.204740740740746" r="1" />
<circle cx="161.63461925925927" cy="45.352064" r="1" />
<circle cx="-244.91873185185185" cy="-81.22784474074074" r="1" />
<circle cx="-137.38359111111112" cy="-52.76989866666666" r="1" />
<circle cx="115.6021451851852" cy="9.030677333333331" r="1" />
<circle cx="116.01490962962964" cy="40.686039703703706" r="1" />
<circle cx="196.69290074074078" cy="-99.15329422222223" r="1" />
<circle cx="119.54259555555555" cy="-1.7093973333333337" r="1" />
<circle cx="-39.73922962962962" cy="-66.78903466666667" r="1" />
<circle cx="121.15867851851853" cy="-2.762766222222223" r="1" />
<circle cx="174.05599407407408" cy="-67.32314074074074" r="1" />
<circle cx="-236.78951111111112" cy="79.58729481481483" r="1" />
<circle cx="-119.40555259259251" cy="-48.90264414814817" r="1" />
<circle cx="72.64814222222222" cy="70.91366162962963" r="1" />
<circle cx="235.99189333333334" cy="87.82367051851853" r="1" />
<circle cx="152.31694222222222" cy="-37.53699318518519" r="1" />
<circle cx="-217.7634488888889" cy="70.13441185185185" r="1" />
<circle cx="-136.06442074074076" cy="-61.15246222222222" r="1" />
<circle cx="178.67164444444444" cy="-84.63572385185185" r="1" />
<circle cx="127.83237925925926" cy="63.92523614814816" r="1" />
<circle cx="-153.36355555555554" cy="-98.17277155555557" r="1" />
<circle cx="186.56136888888892" cy="-77.8081611851852" r="1" />
<circle cx="141.40859259259258" cy="23.323337481481477" r="1" />
<circle cx="-76.2141688888889" cy="-80.6899602962963" r="1" />
<circle cx="53.98193777777754" cy="126.95339377777789" r="1" />
<circle cx="136.0710222222222" cy="-25.537303703703707" r="1" />
<circle cx="201.80883555555556" cy="-12.314436740740739" r="1" />
<circle cx="118.04444444444445" cy="-0.4250864197546673" r="1" />
<circle cx="123.64444444444445" cy="-13.752098764800001" r="1" />
<circle cx="235.31851851804447" cy="80.18804938240002" r="1" />
<circle cx="253.80148148195556" cy="76.36582716017779" r="1" />
<circle cx="-250.51851851804446" cy="81.11288888888889" r="1" />
<circle cx="-226.16296296248888" cy="78.1159506176" r="1" />
<circle cx="-250.61925925973335" cy="-83.55397530879999" r="1" />
</svg>